<svg width="121" height="122" viewBox="0 0 121 122" fill="none" xmlns="http://www.w3.org/2000/svg">
<g filter="url(#filter0_d_12_165)">
<path d="M77.3911 10.6553H14.472V74.4185L43.7726 103.967H107V40.5151L77.3911 10.6553Z" fill="white"/>
<path d="M76.62 12.6045L105.077 41.3031V102.029H44.5436L16.4049 73.6409V12.6045H76.62ZM77.3911 10.6553H14.472V74.4185L43.7726 103.967H107V40.5151L77.3911 10.6553Z" fill="#242E3D"/>
<path d="M29.5027 63.2211V66.6425H27.5699V57.3113H31.1168C31.9598 57.2387 32.7309 57.5498 33.43 58.0889C34.5815 59.3331 34.5815 61.1993 33.43 62.4435C32.8131 62.993 31.9598 63.2937 31.1168 63.2211H29.5027ZM29.5027 61.7385H30.8906C31.2813 61.7385 31.6617 61.6659 31.8879 61.3445C32.3505 60.7224 32.3505 59.7893 31.8879 59.1672C31.5794 58.9287 31.271 58.7732 30.8906 58.7732H29.5027V61.7385ZM42.3744 66.6425L41.7575 64.5482H38.6013L37.9844 66.6425H35.9077L39.1462 57.3113H41.3874L44.5436 66.6425H42.3744ZM38.9817 63.0656H41.2949L40.1434 59.1776L38.992 63.0656H38.9817ZM47.3092 57.3113H50.8561C51.7094 57.2387 52.4805 57.5498 53.1693 58.0889C53.7142 58.6281 54.0226 59.4057 54.0226 60.1833C54.0226 60.7328 53.8684 61.1993 53.56 61.6659C53.2515 62.1324 52.7889 62.4435 52.3263 62.682L54.6395 66.7255H52.5627L50.558 63.0759H49.242V66.6529H47.3092V57.3113ZM49.242 61.5829H50.6299C51.329 61.6555 51.9356 61.189 52.0178 60.4943V60.1003C52.1001 59.3953 51.6272 58.7836 51.0206 58.7006H49.3242V61.5726H49.2523L49.242 61.5829ZM59.3378 66.6425V58.9391H56.49V57.3113H64.1287V58.9391H61.2706V66.6425H59.3378ZM68.971 60.1833V66.6425H67.2027V57.3113H69.3617L73.1451 63.8432V57.3113H74.9237V66.6425H72.7647L68.9813 60.1833H68.971ZM78.4603 66.6425V57.3113H84.5568V58.8665H80.4651V61.0438H83.7858V62.599H80.4651V65.0873H84.5568V66.6425H78.4603ZM88.1038 57.3113H91.6507C92.4937 57.2387 93.2648 57.5498 93.9639 58.0889C94.5087 58.6281 94.8069 59.4057 94.8069 60.1833C94.8069 60.7328 94.6527 61.1993 94.3442 61.6659C94.0358 62.1324 93.5732 62.4435 93.1105 62.682L95.4237 66.7255H93.347L91.3422 63.0759H90.0366V66.6529H88.1038V57.3113ZM90.0366 61.5829H91.4245C92.1133 61.6555 92.7301 61.189 92.8124 60.4943V60.1003C92.8844 59.3953 92.4217 58.7836 91.8152 58.7006H90.0366V61.5829Z" fill="#242E3D"/>
<path d="M35.0544 32.0341C35.0544 32.3452 35.0544 32.6562 35.2086 32.9672C35.2806 33.2057 35.4348 33.5167 35.517 33.7448C35.589 33.8278 35.589 33.9004 35.589 33.9833C35.589 34.1388 35.517 34.2218 35.3525 34.2943L34.6534 34.7609H34.4272C34.273 34.7609 34.1908 34.6883 34.1188 34.6054C33.9646 34.4499 33.8104 34.2943 33.7281 34.1388C33.6562 33.9833 33.4917 33.7448 33.4197 33.5167C32.6487 34.4499 31.5692 34.9994 30.3355 34.9994C29.5644 35.0719 28.7933 34.7609 28.2587 34.2218C27.7138 33.6723 27.4876 32.9776 27.4876 32.2C27.4876 31.3498 27.7961 30.5722 28.4129 30.0227C29.112 29.4732 30.027 29.1725 30.9626 29.1725C31.3533 29.1725 31.7337 29.1725 32.0421 29.2451L33.1935 29.4732V28.6956C33.2655 28.0735 33.1113 27.4515 32.7309 26.9849C32.2683 26.5909 31.6514 26.4458 31.0346 26.5183C30.6439 26.5183 30.2635 26.5909 29.8831 26.6739C29.5027 26.7568 29.112 26.9123 28.7316 27.0678C28.5774 27.1404 28.4952 27.1404 28.341 27.2234H28.1867C28.0325 27.2234 27.9503 27.1404 27.9503 26.9123V26.3628C27.9503 26.2073 27.9503 26.1347 28.0223 25.9688C28.0942 25.8962 28.1765 25.8133 28.3307 25.7407C28.7214 25.5023 29.1737 25.3467 29.6364 25.2742C30.1812 25.1186 30.7158 25.0357 31.2607 25.0357C32.258 24.9631 33.1935 25.2742 33.9543 25.8859C34.5712 26.5909 34.8796 27.5137 34.7974 28.4571L35.0235 32.0341H35.0544ZM30.8187 33.5893C31.2093 33.5893 31.5178 33.5167 31.8981 33.4338C32.2888 33.2783 32.5972 33.0398 32.9057 32.7288C33.0599 32.5732 33.2141 32.3348 33.2963 32.0237C33.3786 31.7127 33.3683 31.4017 33.3683 31.0906V30.6241C33.0599 30.5515 32.7515 30.4685 32.443 30.4685C32.1346 30.396 31.8262 30.396 31.4355 30.396C30.9009 30.3234 30.356 30.4685 29.8934 30.79C29.2765 31.412 29.1943 32.4177 29.7392 33.1228C30.0476 33.5167 30.428 33.6619 30.8187 33.5893ZM39.2284 34.7505C39.0742 34.7505 38.92 34.7505 38.8377 34.678C38.7658 34.6054 38.6835 34.4395 38.6116 34.284L36.1442 26.114C36.0722 25.9585 36.0722 25.8029 36.0722 25.72C36.0722 25.5645 36.1442 25.4815 36.2264 25.4815H37.3059C37.4601 25.4815 37.6143 25.4815 37.6966 25.5541C37.7685 25.637 37.8508 25.7926 37.933 25.9481L39.7013 32.8739L41.3257 25.9481C41.3257 25.7926 41.3977 25.637 41.5519 25.5541C41.7061 25.4815 41.8603 25.4815 41.9426 25.4815H42.7856C42.9398 25.4815 43.094 25.4815 43.1763 25.5541C43.2585 25.637 43.3305 25.7926 43.4127 25.9481L45.0268 33.0294L46.8054 25.9481C46.8054 25.7926 46.8774 25.637 47.0316 25.5541C47.1858 25.4815 47.2681 25.4815 47.4223 25.4815H48.4298C48.584 25.4815 48.6663 25.5541 48.6663 25.637V25.8651C48.6663 25.9377 48.584 26.0207 48.584 26.1036L46.1166 34.1907C46.1166 34.3462 46.0446 34.5017 45.8801 34.5846C45.8082 34.7402 45.654 34.7402 45.4895 34.7402H44.5642C44.41 34.7402 44.2558 34.7402 44.1735 34.6676C44.1016 34.5121 44.0193 34.4291 43.9371 34.2736L42.323 27.5033L40.7089 34.2736C40.7089 34.4291 40.6369 34.5846 40.4724 34.6676C40.4004 34.7402 40.2462 34.7402 40.164 34.7402H39.2387L39.2284 34.7505ZM52.645 35.0616C52.1104 35.0616 51.5655 34.989 51.0309 34.906C50.6402 34.8335 50.1878 34.678 49.7972 34.5121C49.5607 34.4395 49.4065 34.201 49.4065 33.89V33.3405C49.4065 33.1124 49.4785 33.0294 49.6327 33.0294H49.7869C49.8588 33.0294 49.9411 33.102 50.0131 33.102C50.4037 33.2575 50.7841 33.4131 51.1645 33.496C51.5552 33.5686 52.0076 33.6515 52.3982 33.6515C52.9431 33.6515 53.4777 33.5789 53.9404 33.2575C54.2488 33.0294 54.4852 32.6355 54.4852 32.2518C54.4852 31.9408 54.4133 31.7023 54.1768 31.5468C53.8684 31.3084 53.4777 31.0803 53.0973 30.9973L51.5552 30.5308C50.9383 30.3752 50.3215 29.9916 49.8589 29.4421C49.5504 28.9755 49.314 28.4364 49.314 27.8869C49.314 27.4929 49.3962 27.1093 49.6224 26.7257C49.7766 26.4146 50.085 26.1036 50.3935 25.8755C50.7019 25.6474 51.0926 25.409 51.473 25.3364C51.9356 25.1809 52.316 25.1809 52.7786 25.1809C53.0151 25.1809 53.2413 25.1809 53.4777 25.2638C53.7142 25.2638 53.9404 25.3364 54.1768 25.4193C54.4133 25.5023 54.5675 25.4919 54.7937 25.5748C54.9479 25.6578 55.1021 25.6578 55.2563 25.7304C55.4105 25.8029 55.4825 25.8859 55.5647 25.9585C55.6367 26.0414 55.6367 26.1969 55.6367 26.3524V26.819C55.6367 27.0471 55.5647 27.13 55.4002 27.13C55.2358 27.13 55.0918 27.0575 55.0096 26.9745C54.3927 26.6635 53.7039 26.5805 53.0048 26.5805C52.5422 26.5805 52.0795 26.6531 51.6169 26.8916C51.3085 27.0471 51.0823 27.4307 51.1542 27.8247C51.1542 28.1357 51.2262 28.3742 51.4627 28.6023C51.7711 28.9133 52.1618 29.0689 52.6141 29.1518L54.0843 29.6184C54.7011 29.7739 55.2358 30.1575 55.6984 30.6241C56.0068 31.018 56.161 31.5572 56.161 32.1067C56.161 32.5007 56.0891 32.9569 55.8526 33.3508C55.6984 33.7448 55.39 34.0559 55.0815 34.284C54.7731 34.5121 54.3105 34.7505 53.9301 34.906C53.6217 34.989 53.087 35.0616 52.6244 35.0616H52.645Z" fill="#242E3D"/>
<path d="M54.5675 40.1315C51.0926 42.6924 46.1577 44.0195 41.8398 44.0195C36.1339 44.0195 30.5822 41.9148 26.3465 38.0268C26.038 37.7158 26.3465 37.3322 26.7371 37.5603C31.4355 40.3596 36.833 41.7593 42.2304 41.7593C46.3222 41.7593 50.3318 40.9091 54.1049 39.3539C54.6395 39.1155 55.1844 39.7479 54.5675 40.1315ZM55.1021 42.4643C54.9479 42.7754 55.2563 42.9309 55.5647 42.6924C57.4153 41.1372 57.8779 37.8713 57.4975 37.4047C57.1069 36.9382 53.8684 36.5546 51.9459 37.9439C51.6374 38.1823 51.7197 38.4934 52.0178 38.4104C53.0973 38.2549 55.5647 37.9439 56.0274 38.566C56.49 39.188 55.4825 41.4379 55.1021 42.454V42.4643Z" fill="#FF9900"/>
<path d="M60.3248 72.7182C59.893 72.5523 59.5743 72.3553 59.3687 72.1272C59.1733 71.8887 59.0808 71.6088 59.0808 71.2667C59.0808 70.7794 59.2453 70.3957 59.5846 70.1158C59.9238 69.8359 60.3659 69.6907 60.9417 69.6907C61.4146 69.6907 61.8978 69.784 62.3913 69.9707V70.7275C61.8875 70.572 61.4351 70.4994 61.0136 70.4994C60.3351 70.4994 59.9855 70.7275 59.9855 71.1941C59.9855 71.3703 60.0472 71.5155 60.1706 71.6295C60.294 71.7436 60.5201 71.8576 60.8286 71.9717L61.4865 72.2102C61.9081 72.376 62.2268 72.5627 62.4118 72.7908C62.6072 73.0189 62.6997 73.3092 62.6997 73.6617C62.6997 74.1801 62.5146 74.5948 62.1445 74.8851C61.7847 75.1858 61.2809 75.3309 60.6538 75.3309C60.3762 75.3309 60.1089 75.2998 59.8313 75.248C59.5537 75.1961 59.3173 75.1132 59.1219 75.0199V74.263C59.3687 74.346 59.636 74.4082 59.9033 74.46C60.1809 74.5119 60.4379 74.5326 60.6538 74.5326C61.0136 74.5326 61.2912 74.4704 61.4865 74.3356C61.6819 74.2008 61.7847 74.0038 61.7847 73.7654C61.7847 73.5891 61.723 73.4439 61.5996 73.3299C61.4865 73.2159 61.2809 73.1122 60.9828 72.9878L60.294 72.7182H60.3248Z" fill="#242E3D"/>
<path d="M64.3035 73.4336C64.3241 73.8276 64.4269 74.1179 64.6325 74.3045C64.8381 74.4808 65.1568 74.5741 65.568 74.5741C65.9587 74.5741 66.37 74.5119 66.812 74.3667V75.0095C66.6373 75.1028 66.4214 75.1754 66.1849 75.2272C65.9484 75.2895 65.6914 75.3102 65.4344 75.3102C64.797 75.3102 64.3035 75.1339 63.9642 74.7918C63.625 74.4393 63.4605 73.9209 63.4605 73.2366C63.4605 72.5523 63.625 72.0546 63.9539 71.6814C64.2829 71.3081 64.7456 71.1215 65.3316 71.1215C65.8251 71.1215 66.2157 71.2563 66.4933 71.5362C66.7606 71.8058 66.9046 72.1998 66.9046 72.7182C66.9046 72.9878 66.884 73.2262 66.8326 73.4336H64.3035ZM65.2802 71.7954C65.0026 71.7954 64.7764 71.8887 64.6016 72.0754C64.4269 72.262 64.3241 72.5108 64.3035 72.8322H66.0821V72.77C66.0821 72.459 66.0101 72.2102 65.8765 72.0546C65.7325 71.8887 65.5372 71.7954 65.2699 71.7954H65.2802Z" fill="#242E3D"/>
<path d="M69.3 75.1339C69.115 75.2065 68.9093 75.248 68.6934 75.248C68.385 75.248 68.1588 75.165 67.9943 74.9888C67.8401 74.8125 67.7682 74.5637 67.7682 74.2215V69.4315H68.6832V74.149C68.6832 74.2734 68.7037 74.3667 68.7551 74.4289C68.8065 74.4807 68.8785 74.5119 68.9916 74.5119C69.0841 74.5119 69.1766 74.5119 69.2897 74.4911V75.1339H69.3Z" fill="#242E3D"/>
<path d="M70.7291 73.4336C70.7393 73.8276 70.8524 74.1179 71.058 74.3045C71.2637 74.4808 71.5824 74.5741 71.9936 74.5741C72.3843 74.5741 72.7955 74.5119 73.2376 74.3667V75.0095C73.0628 75.1028 72.8469 75.1754 72.6104 75.2272C72.374 75.2895 72.117 75.3102 71.8599 75.3102C71.2225 75.3102 70.7291 75.1339 70.3898 74.7918C70.0505 74.4393 69.886 73.9209 69.886 73.2366C69.886 72.5523 70.0505 72.0546 70.3795 71.6814C70.7085 71.3081 71.1609 71.1215 71.7571 71.1215C72.2506 71.1215 72.6413 71.2563 72.9086 71.5362C73.1759 71.8058 73.3198 72.1998 73.3198 72.7182C73.3198 72.9878 73.2993 73.2262 73.2479 73.4336H70.7291ZM71.7057 71.7954C71.4281 71.7954 71.202 71.8887 71.0272 72.0754C70.8524 72.262 70.7496 72.5108 70.7291 72.8322H72.5076V72.77C72.5076 72.459 72.4357 72.2102 72.302 72.0546C72.1581 71.8887 71.9628 71.7954 71.6955 71.7954H71.7057Z" fill="#242E3D"/>
<path d="M76.9593 75.0406C76.6508 75.2065 76.291 75.2791 75.8798 75.2791C75.2732 75.2791 74.8106 75.1028 74.4816 74.7607C74.1629 74.4082 73.9984 73.9105 73.9984 73.2573C73.9984 72.6041 74.1629 72.0754 74.5021 71.7125C74.8414 71.3392 75.3143 71.1526 75.9106 71.1526C76.2704 71.1526 76.62 71.2356 76.9387 71.3807V72.0339C76.5892 71.9302 76.3013 71.8784 76.0545 71.8784C75.6639 71.8784 75.3863 71.9821 75.2012 72.1894C75.0162 72.3968 74.9236 72.7286 74.9236 73.1744V73.2677C74.9236 73.7031 75.0162 74.0349 75.2012 74.2423C75.3863 74.4496 75.6742 74.543 76.0545 74.543C76.3218 74.543 76.6303 74.4911 76.9593 74.3874V75.0406Z" fill="#242E3D"/>
<path d="M80.0435 75.1028C79.7762 75.1961 79.4884 75.248 79.1902 75.248C78.779 75.248 78.4808 75.1547 78.2752 74.968C78.0799 74.771 77.9874 74.4807 77.9874 74.0764V71.9406H77.3294V71.36L78.0285 71.2667L78.1621 70.1573H78.9126V71.2356H80.0333V71.9406H78.9126V74.0453C78.9126 74.2112 78.9538 74.346 79.036 74.4185C79.1285 74.4911 79.2725 74.5326 79.4678 74.5326C79.6837 74.5326 79.879 74.5222 80.0538 74.4704V75.1028H80.0435Z" fill="#242E3D"/>
<path d="M84.0325 75.1961V70.5824H82.3567V69.8048H86.6439V70.5824H84.9681V75.1961H84.0325Z" fill="#242E3D"/>
<path d="M87.343 75.1961V71.2356H88.2477V75.1961H87.343ZM87.785 70.5824C87.6205 70.5824 87.4869 70.5409 87.3841 70.4476C87.2916 70.3543 87.2402 70.2195 87.2402 70.0536C87.2402 69.8877 87.2916 69.7529 87.3841 69.6596C87.4766 69.5663 87.6103 69.5145 87.785 69.5145C87.9598 69.5145 88.1037 69.5663 88.1963 69.6596C88.2888 69.7529 88.3402 69.8774 88.3402 70.0536C88.3402 70.2299 88.2888 70.3439 88.1963 70.4476C88.1037 70.5409 87.9598 70.5824 87.785 70.5824Z" fill="#242E3D"/>
<path d="M90.0263 73.4336C90.0468 73.8276 90.1496 74.1179 90.3553 74.3045C90.5609 74.4808 90.8796 74.5741 91.2908 74.5741C91.6815 74.5741 92.0927 74.5119 92.5348 74.3667V75.0095C92.36 75.1028 92.1441 75.1754 91.9077 75.2272C91.6712 75.2895 91.4142 75.3102 91.1572 75.3102C90.5197 75.3102 90.0263 75.1339 89.687 74.7918C89.3477 74.4393 89.1832 73.9209 89.1832 73.2366C89.1832 72.5523 89.3477 72.0546 89.6767 71.6814C90.0057 71.3081 90.4683 71.1215 91.0544 71.1215C91.5581 71.1215 91.9385 71.2563 92.2058 71.5362C92.4731 71.8058 92.6171 72.1998 92.6171 72.7182C92.6171 72.9878 92.5965 73.2262 92.5451 73.4336H90.0263ZM91.003 71.7954C90.7254 71.7954 90.4992 71.8887 90.3244 72.0754C90.1496 72.262 90.0468 72.5108 90.0263 72.8322H91.8151V72.77C91.8151 72.459 91.7432 72.2102 91.6095 72.0546C91.4656 71.8887 91.2703 71.7954 91.003 71.7954Z" fill="#242E3D"/>
<path d="M93.5012 75.1961V71.2356H94.262L94.3854 71.8265C94.591 71.5984 94.7863 71.4429 94.9611 71.3496C95.1359 71.2563 95.3312 71.2045 95.5471 71.2045C95.6396 71.2045 95.7424 71.2045 95.8555 71.2252V72.065C95.7116 72.0443 95.5574 72.0339 95.4135 72.0339C95.0331 72.0339 94.7041 72.1272 94.4162 72.3242V75.1961H93.5012Z" fill="#242E3D"/>
<path d="M69.0327 80.4942C68.6009 80.3283 68.2822 80.1313 68.0766 79.9032C67.8812 79.6648 67.7887 79.3848 67.7887 79.0427C67.7887 78.5554 67.9532 78.1718 68.2925 77.8918C68.6317 77.6119 69.0841 77.4667 69.6496 77.4667C70.1225 77.4667 70.6057 77.56 71.0992 77.7467V78.5035C70.5954 78.348 70.143 78.2754 69.7215 78.2754C69.043 78.2754 68.6934 78.5035 68.6934 78.9701C68.6934 79.1463 68.7551 79.2915 68.8785 79.4056C69.0019 79.5196 69.228 79.6336 69.5365 79.7477L70.1944 79.9862C70.616 80.1521 70.9244 80.3387 71.1197 80.5668C71.3151 80.7949 71.4076 81.0852 71.4076 81.4377C71.4076 81.9561 71.2225 82.3708 70.8524 82.6611C70.4926 82.9618 69.9888 83.1069 69.3617 83.1069C69.0841 83.1069 68.8168 83.0758 68.5392 83.024C68.2719 82.9722 68.0252 82.8892 67.8298 82.7959V82.039C68.0766 82.122 68.3439 82.1842 68.6112 82.236C68.8888 82.2879 69.1458 82.3086 69.3617 82.3086C69.7215 82.3086 69.9991 82.2464 70.1944 82.1116C70.3898 81.9768 70.4926 81.7798 70.4926 81.5414C70.4926 81.3651 70.4309 81.22 70.3075 81.1059C70.1944 80.9919 69.9888 80.8882 69.6907 80.7638L69.0019 80.4942H69.0327Z" fill="#242E3D"/>
<path d="M73.0114 81.2096C73.0217 81.6036 73.1348 81.8939 73.3404 82.0805C73.546 82.2568 73.8647 82.3501 74.276 82.3501C74.6666 82.3501 75.0779 82.2879 75.5199 82.1427V82.7855C75.3452 82.8788 75.1293 82.9514 74.8928 83.0033C74.6563 83.0551 74.3993 83.0862 74.1423 83.0862C73.5049 83.0862 73.0114 82.9099 72.6721 82.5678C72.3329 82.2153 72.1684 81.6969 72.1684 81.0126C72.1684 80.3283 72.3329 79.8306 72.6619 79.4574C72.9908 79.0841 73.4432 78.8975 74.0395 78.8975C74.533 78.8975 74.9236 79.0323 75.191 79.3122C75.4583 79.5818 75.6022 79.9758 75.6022 80.4942C75.6022 80.7638 75.5816 81.0022 75.5302 81.2096H73.0114ZM73.9881 79.5714C73.7105 79.5714 73.4843 79.6648 73.3095 79.8514C73.1348 80.038 73.032 80.2868 73.0114 80.6082H74.79V80.546C74.79 80.235 74.718 79.9862 74.5844 79.8306C74.4404 79.6648 74.2451 79.5714 73.9778 79.5714H73.9881Z" fill="#242E3D"/>
<path d="M76.4863 82.9721V79.0116H77.2471L77.3705 79.6025C77.5761 79.3744 77.7715 79.2189 77.9462 79.1256C78.121 79.0323 78.3163 78.9805 78.5425 78.9805C78.635 78.9805 78.7379 78.9805 78.8509 79.0012V79.841C78.707 79.8203 78.5528 79.8099 78.4089 79.8099C78.0285 79.8099 77.6995 79.9032 77.4116 80.1002V82.9721H76.4863Z" fill="#242E3D"/>
<path d="M80.4856 82.9722L78.9538 79.0116H79.9304L80.9277 82.1427L81.9352 79.0116H82.8605L81.3595 82.9722H80.4753H80.4856Z" fill="#242E3D"/>
<path d="M83.5082 82.9721V79.0116H84.4129V82.9721H83.5082ZM83.9503 78.3584C83.7858 78.3584 83.6521 78.3169 83.5493 78.2236C83.4568 78.1303 83.4054 77.9955 83.4054 77.8296C83.4054 77.6637 83.4568 77.5289 83.5493 77.4356C83.6418 77.3423 83.7755 77.2905 83.9503 77.2905C84.125 77.2905 84.269 77.3423 84.3615 77.4356C84.454 77.5289 84.5054 77.6534 84.5054 77.8296C84.5054 78.0059 84.454 78.1199 84.3615 78.2236C84.269 78.3169 84.125 78.3584 83.9503 78.3584Z" fill="#242E3D"/>
<path d="M88.3196 82.8166C88.0112 82.9825 87.6514 83.0551 87.2401 83.0551C86.6336 83.0551 86.1709 82.8788 85.8419 82.5367C85.5232 82.1842 85.3587 81.6865 85.3587 81.0333C85.3587 80.3801 85.5232 79.8514 85.8625 79.4885C86.2018 79.1152 86.6747 78.9286 87.271 78.9286C87.6308 78.9286 87.9804 79.0116 88.2991 79.1567V79.8099C87.9495 79.7062 87.6617 79.6544 87.4149 79.6544C87.0242 79.6544 86.7467 79.7581 86.5616 79.9654C86.3766 80.1728 86.284 80.5046 86.284 80.9504V81.0437C86.284 81.4792 86.3766 81.8109 86.5616 82.0183C86.7467 82.2257 87.0345 82.319 87.4149 82.319C87.6822 82.319 87.9907 82.2671 88.3196 82.1634V82.8166Z" fill="#242E3D"/>
<path d="M89.7692 81.2096C89.7898 81.6036 89.8926 81.8939 90.0982 82.0805C90.3039 82.2568 90.6226 82.3501 91.0338 82.3501C91.4245 82.3501 91.8357 82.2879 92.2778 82.1427V82.7855C92.103 82.8788 91.8871 82.9514 91.6507 83.0033C91.4142 83.0551 91.1572 83.0862 90.9001 83.0862C90.2524 83.0862 89.7693 82.9099 89.43 82.5678C89.0907 82.2153 88.9262 81.6969 88.9262 81.0126C88.9262 80.3283 89.0907 79.8306 89.4197 79.4574C89.7487 79.0841 90.2113 78.8975 90.7973 78.8975C91.3011 78.8975 91.6815 79.0323 91.9488 79.3122C92.2161 79.5818 92.36 79.9758 92.36 80.4942C92.36 80.7638 92.3395 81.0022 92.2881 81.2096H89.7692ZM90.7459 79.5714C90.4786 79.5714 90.2422 79.6648 90.0674 79.8514C89.8926 80.038 89.7898 80.2868 89.7692 80.6082H91.5581V80.546C91.5581 80.235 91.4862 79.9862 91.3525 79.8306C91.2086 79.6648 91.0132 79.5714 90.7459 79.5714Z" fill="#242E3D"/>
<path d="M95.0125 81.9042C95.0125 81.7902 94.9714 81.6969 94.8994 81.6243C94.8274 81.5517 94.6938 81.4792 94.4984 81.4066L93.861 81.1681C93.2853 80.94 92.9974 80.5771 92.9974 80.0795C92.9974 79.7166 93.1311 79.4367 93.3984 79.2293C93.676 79.0219 94.0255 78.9183 94.4676 78.9183C94.9097 78.9183 95.2901 79.0012 95.6191 79.1671V79.8099C95.2284 79.6855 94.8583 79.6129 94.519 79.6129C94.2826 79.6129 94.1181 79.644 94.005 79.727C93.8919 79.7995 93.8405 79.9032 93.8405 80.0587C93.8405 80.1728 93.8816 80.2661 93.9638 80.3387C94.0358 80.4009 94.1798 80.4838 94.3854 80.5668L94.9919 80.7949C95.3004 80.9193 95.5163 81.0644 95.6499 81.2303C95.7836 81.3962 95.8555 81.6036 95.8555 81.8524C95.8555 82.2464 95.7116 82.5574 95.434 82.7752C95.1564 83.0032 94.776 83.1173 94.2826 83.1173C94.0461 83.1173 93.8096 83.0862 93.5732 83.0344C93.347 82.9825 93.1517 82.9099 92.9666 82.8166V82.1738C93.4601 82.3397 93.8919 82.4123 94.2826 82.4123C94.5396 82.4123 94.7246 82.3708 94.8377 82.2879C94.9611 82.2153 95.0228 82.0909 95.0228 81.925L95.0125 81.9042Z" fill="#242E3D"/>
</g>
<defs>
<filter id="filter0_d_12_165" x="0.472046" y="0.655273" width="120.528" height="121.312" filterUnits="userSpaceOnUse" color-interpolation-filters="sRGB">
<feFlood flood-opacity="0" result="BackgroundImageFix"/>
<feColorMatrix in="SourceAlpha" type="matrix" values="0 0 0 0 0 0 0 0 0 0 0 0 0 0 0 0 0 0 127 0" result="hardAlpha"/>
<feOffset dy="4"/>
<feGaussianBlur stdDeviation="7"/>
<feComposite in2="hardAlpha" operator="out"/>
<feColorMatrix type="matrix" values="0 0 0 0 0 0 0 0 0 0.0196078 0 0 0 0 0.247059 0 0 0 0.69 0"/>
<feBlend mode="normal" in2="BackgroundImageFix" result="effect1_dropShadow_12_165"/>
<feBlend mode="normal" in="SourceGraphic" in2="effect1_dropShadow_12_165" result="shape"/>
</filter>
</defs>
</svg>
