<svg width="142" height="52" viewBox="0 0 142 52" fill="none" xmlns="http://www.w3.org/2000/svg">
<g id="Vector">
<path d="M57.4213 3.60544C62.2894 3.60544 66.6582 4.56583 70.7448 6.5302C68.7505 17.7101 66.6621 29.6971 64.5293 42.1901C62.241 41.7119 59.886 41.4794 57.3755 41.4794C50.5458 41.4794 43.9083 43.2073 36.8825 45.0396C30.3521 46.7424 23.5956 48.5007 16.9985 48.5007C12.1305 48.5007 7.7616 47.5403 3.67503 45.5759C5.67323 34.3789 7.7616 22.3931 9.89049 9.91601C12.1788 10.3942 14.5338 10.6267 17.0443 10.6267C23.874 10.6267 30.5116 8.89881 37.5386 7.06654C44.069 5.36373 50.8255 3.60544 57.4226 3.60544H57.4213ZM57.4213 0.963379C50.4975 0.963379 43.626 2.7547 36.8904 4.50771C30.0816 6.28185 23.542 7.98466 17.0443 7.98466C14.4109 7.98466 11.7868 7.70592 9.1495 7.03748L7.7982 6.69665L7.56035 8.09695C5.28901 21.4288 3.06211 34.2084 0.941061 46.0792L0.768555 47.0515L1.62847 47.5007C6.76316 50.1758 11.8978 51.148 16.9999 51.148C23.9236 51.148 30.7951 49.358 37.5307 47.6037C44.3395 45.8296 50.8752 44.1268 57.3768 44.1268C60.0102 44.1268 62.6383 44.4055 65.2716 45.0739L66.6229 45.4148L66.8608 44.0145C69.1334 30.6734 71.3603 17.8937 73.4814 6.03218L73.6539 5.0599L72.794 4.61075C67.658 1.93566 62.5233 0.963379 57.4213 0.963379Z" fill="#563FF0"/>
<path d="M25.8199 24.0973C27.6012 23.915 29.3863 23.5781 31.1676 23.1541C31.3924 21.8119 31.6146 20.4697 31.8393 19.1236C28.5591 19.9426 25.2749 20.4948 21.996 20.3654C20.9806 26.1779 19.9612 31.9231 18.9458 37.5956C22.226 38.1848 25.5089 37.9655 28.7891 37.3538C29.0139 36.0249 29.2348 34.6906 29.4608 33.3577C27.6796 33.7197 25.8944 33.972 24.1131 34.0512C24.2896 33.0327 24.4647 32.0155 24.6372 30.997C26.3204 30.8887 28.0037 30.6351 29.6856 30.2863C29.9104 28.9521 30.1326 27.6152 30.3574 26.277C28.6741 26.6508 26.9909 26.9375 25.3089 27.0828C25.4814 26.0854 25.6526 25.0933 25.8212 24.096L25.8199 24.0973Z" fill="#563FF0"/>
<path d="M52.2631 14.2133C50.9196 15.8791 49.5814 17.6454 48.2379 19.4816C47.4433 18.0232 46.654 16.5859 45.8594 15.1697C45.1106 15.3402 44.3604 15.5357 43.6116 15.7351V15.7312C43.5293 15.7523 43.4482 15.7774 43.3659 15.7972C43.1738 15.8474 42.9856 15.9016 42.7922 15.9544C42.5465 16.0205 42.3008 16.0918 42.0551 16.1618C41.863 16.216 41.6748 16.2702 41.4814 16.3283C41.2357 16.3996 40.9861 16.4736 40.7404 16.5449C40.6581 16.57 40.5718 16.5951 40.4908 16.6202C38.226 17.2926 35.9625 18.0073 33.6977 18.6348C32.6823 24.767 31.6629 30.8834 30.6475 36.9654C32.1465 36.6246 33.6441 36.2138 35.1431 35.7778C35.5561 33.5255 35.9089 31.1331 36.3219 28.8768C37.7555 28.4448 39.2898 28.0247 40.7195 27.5967C40.9443 26.2426 41.1665 24.8873 41.3912 23.5332C39.9576 23.9572 38.4233 24.3721 36.9936 24.808C37.1491 23.6204 37.3661 22.5649 37.5216 21.372C39.1761 20.8687 40.8345 20.3627 42.489 19.8964C43.3986 21.3958 44.3029 22.9044 45.2125 24.4421C44.7251 27.3708 44.2467 30.3008 43.7593 33.2375C45.2583 32.8385 46.7442 32.4938 48.2471 32.2322C48.7345 29.3365 49.222 26.4487 49.7134 23.5741C52.3546 20.1751 54.6599 16.9188 57.3376 14.1803C55.3316 14.1261 54.0992 14.2463 52.2644 14.2133H52.2631Z" fill="#563FF0"/>
<path d="M57.139 31.7513C58.2237 30.6522 58.3387 28.9838 57.3951 28.026C56.4516 27.0683 54.8088 27.1832 53.7241 28.2836C52.6394 29.3827 52.5244 31.0512 53.468 32.0089C54.4116 32.9667 56.0543 32.8518 57.139 31.7527V31.7513Z" fill="#563FF0"/>
<path d="M86.6899 10.2238C85.8051 10.1908 84.9217 10.1445 84.033 10.0864C83.9311 10.5686 83.8279 11.0508 83.7259 11.5316C84.561 11.5898 85.3961 11.64 86.2325 11.673C86.0979 12.3124 85.962 12.9491 85.8274 13.5845C84.9923 13.5475 84.1572 13.4973 83.3221 13.4313C83.2162 13.9253 83.1091 14.4247 83.0032 14.9188C83.888 14.9901 84.7727 15.0469 85.6601 15.0892C85.5255 15.7246 85.3896 16.3653 85.2549 17.0007C83.6253 16.9135 81.9956 16.7801 80.366 16.5899C80.9802 13.7404 81.5944 10.8777 82.2086 8.01108C83.8383 8.16036 85.468 8.25679 87.0976 8.30567C86.963 8.94505 86.8271 9.58575 86.6925 10.2251L86.6899 10.2238Z" fill="#563FF0"/>
<path d="M87.8033 11.13C88.4908 11.1472 89.1795 11.1551 89.8669 11.1551C89.8133 11.4008 89.765 11.6452 89.7114 11.887C90.3909 11.3388 91.0784 11.06 91.7749 11.0481C92.6427 11.0362 93.2242 11.389 93.5235 12.1248C94.1456 11.3559 94.8866 10.953 95.7426 10.9121C96.017 10.9002 96.2666 10.9292 96.4914 10.9993C96.7162 11.0693 96.9004 11.1868 97.0364 11.352C97.1762 11.5184 97.2664 11.743 97.3108 12.0164C97.3552 12.2952 97.3356 12.6307 97.2533 13.0297C96.9828 14.3349 96.7123 15.6427 96.4391 16.9479C95.7517 16.9809 95.063 17.0139 94.3756 17.039C94.5808 16.0496 94.7886 15.0614 94.9937 14.072C95.0552 13.7681 95.0878 13.5198 95.0878 13.3243C95.0878 13.1288 95.0591 12.9795 95.0016 12.8751C94.9441 12.7668 94.867 12.7007 94.7676 12.6638C94.6696 12.6307 94.5585 12.6136 94.4357 12.6175C93.777 12.6426 93.3379 13.1446 93.1341 14.1341C92.9289 15.1182 92.7211 16.1077 92.5159 17.0918C91.8285 17.1077 91.1398 17.1169 90.4524 17.1169C90.6575 16.1367 90.8666 15.1513 91.0705 14.171C91.1359 13.8672 91.1685 13.6189 91.1725 13.4194C91.1764 13.2199 91.1515 13.0667 91.1071 12.9504C91.0574 12.8342 90.9843 12.7549 90.8784 12.7139C90.7712 12.673 90.6445 12.6519 90.4929 12.6519C90.3622 12.6519 90.2393 12.673 90.1165 12.71C89.9937 12.747 89.8787 12.8262 89.7689 12.9346C89.6578 13.0469 89.5559 13.2001 89.4657 13.3996C89.3755 13.5951 89.2984 13.8527 89.2278 14.1724C89.0227 15.1526 88.8149 16.1288 88.6097 17.1103C87.9223 17.0985 87.2335 17.0813 86.5461 17.0562C86.9683 15.0865 87.3851 13.1089 87.8033 11.1314V11.13Z" fill="#563FF0"/>
<path d="M99.3835 19.759C98.6961 19.8052 98.0074 19.8462 97.32 19.8872C97.9459 16.8712 98.5732 13.85 99.1992 10.8262C99.8867 10.78 100.575 10.7311 101.263 10.6809C101.218 10.9055 101.169 11.13 101.123 11.3533C101.684 10.7469 102.344 10.4101 103.1 10.348C103.518 10.315 103.891 10.3652 104.214 10.5065C104.542 10.6439 104.803 10.8513 105.012 11.1168C105.217 11.3863 105.352 11.7113 105.421 12.0931C105.487 12.4748 105.475 12.891 105.381 13.3401C105.287 13.7893 105.127 14.2173 104.901 14.6149C104.671 15.0139 104.398 15.3705 104.074 15.6863C103.75 16.002 103.394 16.2556 103.005 16.4511C102.611 16.6467 102.206 16.7589 101.793 16.792C101.064 16.8501 100.511 16.6348 100.131 16.1486C99.8814 17.3534 99.6318 18.5542 99.3822 19.759H99.3835ZM103.232 13.5224C103.273 13.3309 103.278 13.1565 103.249 12.99C103.22 12.8236 103.159 12.6862 103.061 12.57C102.967 12.4537 102.844 12.3665 102.696 12.3044C102.549 12.2423 102.378 12.2172 102.188 12.2344C102.004 12.2463 101.827 12.2965 101.652 12.3797C101.476 12.463 101.32 12.5713 101.174 12.7073C101.03 12.8447 100.903 12.998 100.798 13.1723C100.692 13.3467 100.617 13.529 100.577 13.7166C100.54 13.9042 100.536 14.0825 100.569 14.2397C100.602 14.4022 100.667 14.5383 100.765 14.6506C100.863 14.7629 100.982 14.8501 101.129 14.9121C101.277 14.9742 101.441 14.9993 101.625 14.9874C101.809 14.9756 101.985 14.9254 102.161 14.8421C102.337 14.7589 102.493 14.6506 102.64 14.5145C102.784 14.3771 102.911 14.2239 103.017 14.0535C103.122 13.8831 103.197 13.7047 103.234 13.5211L103.232 13.5224Z" fill="#563FF0"/>
<path d="M109.916 6.24354C109.24 9.52102 108.564 12.8038 107.889 16.0813C107.201 16.1433 106.512 16.2054 105.825 16.2636C106.501 12.9861 107.176 9.70728 107.852 6.42584C108.539 6.37168 109.228 6.30563 109.916 6.24354Z" fill="#563FF0"/>
<path d="M109.595 12.8963C109.689 12.4471 109.862 12.0151 110.119 11.6082C110.373 11.2014 110.689 10.8394 111.056 10.5237C111.429 10.208 111.843 9.94639 112.31 9.74295C112.772 9.53951 113.26 9.41534 113.767 9.37306C114.27 9.33211 114.717 9.37306 115.114 9.49724C115.512 9.6267 115.834 9.82089 116.093 10.0825C116.347 10.344 116.523 10.6677 116.617 11.0547C116.711 11.4405 116.707 11.8738 116.605 12.3507C116.507 12.8328 116.327 13.2767 116.064 13.6889C115.802 14.0997 115.487 14.4617 115.118 14.7774C114.746 15.0892 114.328 15.3468 113.857 15.5423C113.387 15.7378 112.899 15.858 112.391 15.9042C111.892 15.9505 111.441 15.9122 111.047 15.792C110.654 15.6717 110.335 15.4802 110.085 15.2147C109.84 14.9491 109.667 14.6202 109.577 14.2305C109.483 13.8355 109.491 13.3916 109.593 12.8963H109.595ZM111.766 12.7219C111.726 12.9253 111.72 13.1129 111.758 13.2741C111.795 13.4366 111.86 13.5779 111.95 13.6942C112.041 13.8104 112.163 13.8976 112.311 13.9518C112.459 14.0099 112.626 14.031 112.806 14.0138C112.991 13.9967 113.171 13.9478 113.347 13.8606C113.524 13.7774 113.687 13.6651 113.831 13.5277C113.975 13.3903 114.101 13.2371 114.207 13.0587C114.314 12.8844 114.388 12.6968 114.428 12.4973C114.465 12.3058 114.469 12.1314 114.432 11.9702C114.395 11.8077 114.33 11.6664 114.24 11.5501C114.15 11.4339 114.027 11.3467 113.879 11.2886C113.732 11.2304 113.564 11.2093 113.384 11.2265C113.2 11.2436 113.019 11.2925 112.843 11.3757C112.663 11.4629 112.503 11.5713 112.359 11.7086C112.216 11.846 112.089 11.9993 111.983 12.1736C111.881 12.352 111.807 12.5303 111.766 12.7219Z" fill="#563FF0"/>
<path d="M118.555 14.3745C117.974 12.6955 117.392 11.0217 116.811 9.34796C117.609 9.28588 118.408 9.23171 119.206 9.17755C119.513 10.1789 119.82 11.1763 120.123 12.1776C120.845 11.1142 121.561 10.0547 122.281 9.00318C123.072 8.96619 123.861 8.93712 124.652 8.91202C122.461 11.957 120.27 15.0614 118.076 18.1976C117.306 18.2517 116.532 18.3098 115.762 18.3719C116.692 17.0337 117.626 15.7008 118.555 14.3745Z" fill="#563FF0"/>
<path d="M126.105 12.2186C125.913 13.1288 126.236 13.5726 127.072 13.5647C127.518 13.5607 127.899 13.3731 128.203 13.0033C128.866 13.0033 129.533 13.0112 130.197 13.0284C129.509 14.3785 128.358 15.0429 126.745 15.0601C126.25 15.0641 125.816 14.998 125.435 14.8567C125.058 14.7153 124.751 14.5079 124.517 14.2371C124.283 13.9676 124.128 13.6387 124.051 13.2529C123.972 12.8672 123.985 12.4339 124.083 11.9478C124.185 11.4497 124.358 10.9966 124.596 10.5897C124.833 10.1829 125.12 9.83807 125.459 9.5514C125.799 9.26474 126.185 9.04016 126.615 8.88692C127.045 8.7284 127.511 8.65046 128.01 8.65046C128.51 8.65046 128.932 8.72972 129.296 8.88296C129.661 9.04148 129.947 9.26474 130.16 9.55537C130.373 9.84599 130.508 10.204 130.565 10.6188C130.623 11.0336 130.598 11.5039 130.487 12.0191C130.471 12.0944 130.454 12.1644 130.443 12.2397C129.001 12.1935 127.552 12.1895 126.106 12.2186H126.105ZM128.779 10.9808C128.775 10.6862 128.681 10.4484 128.504 10.27C128.328 10.0917 128.091 10.0006 127.783 10.0006C127.475 10.0006 127.186 10.0877 126.948 10.2621C126.71 10.4365 126.535 10.6782 126.416 10.9887C127.207 10.9808 127.992 10.9768 128.779 10.9808Z" fill="#563FF0"/>
<path d="M132.205 8.94901C132.893 8.97808 133.582 9.01903 134.269 9.06526C134.2 9.38495 134.134 9.70464 134.064 10.0296C134.359 9.69275 134.687 9.4444 135.047 9.28191C135.407 9.11943 135.801 9.05734 136.221 9.09961C136.275 9.10357 136.333 9.1115 136.398 9.11678C136.463 9.12075 136.534 9.13792 136.615 9.16302C136.476 9.81957 136.333 10.4761 136.194 11.1327C135.948 10.9702 135.669 10.8751 135.35 10.846C134.872 10.8051 134.482 10.9253 134.183 11.1948C133.884 11.4643 133.676 11.8764 133.557 12.4286C133.376 13.2714 133.196 14.1156 133.02 14.9584C132.332 14.9214 131.645 14.8923 130.956 14.8712C131.37 12.8976 131.787 10.924 132.205 8.95033V8.94901Z" fill="#563FF0"/>
<path d="M140.922 11.3757C140.586 11.1181 140.234 10.9609 139.87 10.9068C139.681 10.8777 139.517 10.8949 139.383 10.953C139.247 11.0111 139.166 11.1063 139.141 11.2318C139.124 11.2978 139.124 11.3559 139.133 11.3982C139.141 11.4444 139.178 11.4894 139.231 11.5356C139.289 11.5818 139.374 11.6307 139.493 11.6769C139.612 11.7271 139.767 11.7853 139.964 11.8645C140.508 12.064 140.89 12.3335 141.11 12.6704C141.327 13.0072 141.389 13.3969 141.291 13.8461C141.216 14.1829 141.082 14.4736 140.89 14.718C140.692 14.9637 140.456 15.1631 140.172 15.3085C139.89 15.4538 139.567 15.5542 139.202 15.607C138.838 15.6599 138.452 15.6612 138.039 15.611C137.249 15.5159 136.521 15.212 135.849 14.6929C136.205 14.2279 136.557 13.7668 136.913 13.3097C137.404 13.7668 137.913 14.0244 138.429 14.0905C138.617 14.1156 138.784 14.0944 138.924 14.0284C139.063 13.9623 139.145 13.8659 139.174 13.7378C139.189 13.6625 139.195 13.6004 139.185 13.5462C139.178 13.496 139.149 13.4418 139.095 13.393C139.043 13.3428 138.965 13.2939 138.855 13.2437C138.744 13.1935 138.596 13.1393 138.416 13.0772C137.805 12.8698 137.4 12.6281 137.2 12.3454C136.999 12.0627 136.946 11.702 137.045 11.2529C137.114 10.9292 137.237 10.6386 137.417 10.3929C137.594 10.1432 137.818 9.94375 138.084 9.79051C138.35 9.63727 138.658 9.53291 139.001 9.47875C139.346 9.42458 139.713 9.42855 140.111 9.48667C140.758 9.58575 141.356 9.81429 141.913 10.1723C141.577 10.5712 141.249 10.9742 140.922 11.3771V11.3757Z" fill="#563FF0"/>
<path d="M84.2787 21.7366C83.3822 21.6785 82.4857 21.6032 81.5879 21.516C81.4859 21.9942 81.3827 22.4711 81.2808 22.9493C82.0949 23.0365 82.9144 23.1078 83.7298 23.166C83.5952 23.8014 83.4593 24.4328 83.3247 25.0682C82.5105 25.0061 81.6911 24.9308 80.8756 24.8397C80.6339 25.9613 80.3921 27.0788 80.1516 28.2004C79.4067 28.1092 78.6618 28.0089 77.9156 27.8926C78.5298 25.063 79.144 22.2254 79.7583 19.3799C81.3997 19.5873 83.0424 19.7366 84.6799 19.833C84.5492 20.4644 84.4133 21.0999 84.2787 21.7353V21.7366Z" fill="#563FF0"/>
<path d="M84.1885 25.5346C84.2826 25.0986 84.4552 24.6957 84.7126 24.3298C84.9661 23.9599 85.2811 23.6442 85.6496 23.3786C86.0221 23.1131 86.4364 22.9097 86.9029 22.7591C87.3655 22.6138 87.853 22.5424 88.3601 22.5517C88.8632 22.5596 89.3102 22.6428 89.7074 22.8053C90.1047 22.9678 90.4275 23.1871 90.6863 23.4658C90.9398 23.7485 91.1163 24.0854 91.2103 24.4751C91.3044 24.8661 91.3005 25.2981 91.1986 25.771C91.1006 26.2453 90.9202 26.6812 90.6575 27.0709C90.3949 27.4659 90.0799 27.8028 89.7074 28.0842C89.335 28.3669 88.9168 28.5822 88.4463 28.7288C87.9759 28.8741 87.4884 28.9402 86.98 28.9243C86.4808 28.9072 86.0299 28.812 85.6366 28.6377C85.2432 28.4633 84.9243 28.2268 84.6747 27.923C84.429 27.6191 84.2565 27.2664 84.1663 26.8635C84.0762 26.4606 84.084 26.0154 84.1872 25.5332L84.1885 25.5346ZM86.3593 25.6719C86.3187 25.8714 86.3148 26.0537 86.3514 26.2241C86.388 26.3946 86.4534 26.5399 86.5435 26.668C86.6337 26.7975 86.7565 26.8965 86.9042 26.9718C87.0519 27.0471 87.2192 27.0881 87.3995 27.0921C87.5838 27.096 87.7641 27.067 87.9406 27.0009C88.117 26.9349 88.2803 26.8437 88.4241 26.7182C88.5679 26.598 88.6946 26.4527 88.8005 26.2862C88.9076 26.1198 88.9808 25.9414 89.0213 25.7459C89.0619 25.5597 89.0619 25.384 89.0253 25.2188C88.9887 25.0524 88.9233 24.9071 88.8332 24.7789C88.743 24.6548 88.6201 24.5544 88.4725 24.4843C88.3248 24.4143 88.1575 24.3721 87.9772 24.3681C87.7929 24.3641 87.6125 24.3932 87.4361 24.4592C87.2597 24.5253 87.0963 24.6164 86.9526 24.734C86.8088 24.8542 86.6821 24.9916 86.5762 25.1501C86.4703 25.3166 86.3998 25.491 86.3593 25.6733V25.6719Z" fill="#563FF0"/>
<path d="M92.8923 22.7551C93.5797 22.7379 94.2684 22.7128 94.9558 22.6891C94.8866 23.018 94.8212 23.3456 94.7507 23.6732C95.046 23.3033 95.3727 23.0167 95.7334 22.8132C96.0941 22.6058 96.4823 22.4935 96.9083 22.4684C96.9619 22.4645 97.0194 22.4645 97.0847 22.4605C97.1501 22.4566 97.2193 22.4605 97.3017 22.4724C97.1618 23.1501 97.0194 23.8304 96.8795 24.5081C96.6339 24.3839 96.3555 24.3258 96.0366 24.3417C95.557 24.3668 95.1689 24.524 94.8696 24.8278C94.5703 25.1316 94.3612 25.5636 94.2436 26.1237C94.0632 26.9837 93.8829 27.8437 93.7078 28.6998C93.0204 28.7209 92.3316 28.7367 91.6442 28.746C92.0572 26.7512 92.4754 24.7538 92.8936 22.7551H92.8923Z" fill="#563FF0"/>
<path d="M78.4357 35.3895C77.7104 33.7646 76.9864 32.1239 76.2611 30.4739C77.1498 30.6364 78.0384 30.7777 78.9271 30.9019C79.2917 31.75 79.6563 32.5968 80.0196 33.4409C80.7162 32.7263 81.4115 32.0036 82.108 31.2678C82.9967 31.3511 83.8854 31.4171 84.774 31.4713C83.407 32.9125 82.0387 34.3168 80.6718 35.6801C80.3764 37.0513 80.0824 38.4186 79.787 39.7845C79.0421 39.6894 78.2972 39.585 77.551 39.4648C77.8463 38.1068 78.1404 36.7475 78.4357 35.3895Z" fill="#563FF0"/>
<path d="M82.1655 37.0051C82.2596 36.5731 82.4321 36.1741 82.6896 35.8122C82.9431 35.4502 83.2594 35.1437 83.6266 34.8861C83.9991 34.6285 84.4133 34.433 84.8799 34.3009C85.3425 34.1635 85.83 34.1054 86.337 34.1265C86.8363 34.1477 87.2871 34.2388 87.6844 34.4092C88.0817 34.5797 88.4058 34.8042 88.6633 35.0909C88.9168 35.3776 89.0932 35.7184 89.1873 36.1081C89.2814 36.4978 89.2775 36.9351 89.1755 37.404C89.0775 37.8783 88.8972 38.305 88.6345 38.696C88.3731 39.0831 88.0569 39.4146 87.6883 39.6894C87.3159 39.9642 86.8977 40.1716 86.4272 40.309C85.9567 40.4464 85.4693 40.5005 84.9609 40.4715C84.4578 40.4424 84.0108 40.3341 83.6175 40.1518C83.2241 39.9695 82.9052 39.7198 82.6556 39.412C82.4099 39.1042 82.2374 38.7475 82.1472 38.3353C82.0531 37.9285 82.061 37.4872 82.1629 37.0064L82.1655 37.0051ZM84.3362 37.2006C84.2957 37.4001 84.2905 37.5824 84.3284 37.7528C84.365 37.9232 84.4303 38.0725 84.5205 38.2019C84.6107 38.3301 84.7335 38.4344 84.8812 38.5137C85.0289 38.593 85.1961 38.6339 85.3765 38.6471C85.5608 38.655 85.7411 38.6299 85.9175 38.5679C86.0979 38.5058 86.2573 38.4186 86.4011 38.2984C86.5448 38.1821 86.6716 38.0408 86.7775 37.8743C86.8833 37.7118 86.9578 37.5335 86.9983 37.3433C87.0388 37.1557 87.0388 36.9813 87.0022 36.8162C86.9656 36.6497 86.9003 36.5004 86.8101 36.371C86.716 36.2428 86.5971 36.1424 86.4494 36.0671C86.3018 35.9918 86.1345 35.9509 85.9541 35.943C85.7699 35.935 85.5895 35.9601 85.4131 36.0222C85.2327 36.0843 85.0733 36.1715 84.9295 36.2878C84.7858 36.404 84.659 36.5414 84.5532 36.6946C84.4512 36.8479 84.3767 37.0143 84.3362 37.2019V37.2006Z" fill="#563FF0"/>
<path d="M92.9341 34.3881C92.7002 35.5136 92.4636 36.6405 92.2297 37.766C92.0742 38.5058 92.3486 38.8717 93.0439 38.8545C93.7444 38.8373 94.1704 38.4516 94.3259 37.7118C94.5599 36.5823 94.7964 35.4515 95.0303 34.3221C95.7177 34.293 96.4064 34.26 97.0939 34.2217C96.8312 35.4925 96.5659 36.7646 96.3032 38.0315C96.1359 38.8453 95.7465 39.4688 95.1401 39.9008C94.5337 40.3288 93.7156 40.5613 92.6832 40.5864C91.6508 40.6115 90.915 40.412 90.4798 40.0091C90.0459 39.6062 89.91 39.0038 90.0786 38.194C90.3413 36.939 90.6066 35.6801 90.8693 34.4211C91.5567 34.4132 92.2454 34.4053 92.9328 34.3881H92.9341Z" fill="#563FF0"/>
<path d="M100.317 35.7712C100.021 37.1966 99.7272 38.6207 99.4319 40.0421C98.7444 40.0884 98.0557 40.1293 97.3683 40.1716C97.6637 38.7502 97.9577 37.33 98.2531 35.9086C98.023 35.9205 97.7983 35.9377 97.5696 35.9509C97.6924 35.3564 97.8153 34.7672 97.9381 34.1728C98.1681 34.1609 98.3929 34.1437 98.6216 34.1305C98.7484 33.5242 98.8712 32.9218 98.998 32.3154C99.6854 32.2692 100.374 32.2243 101.062 32.1701C100.935 32.7765 100.812 33.3828 100.685 33.9892C101.079 33.9601 101.467 33.931 101.86 33.902C101.737 34.4964 101.614 35.0896 101.491 35.688C101.098 35.7131 100.705 35.7422 100.317 35.7712Z" fill="#563FF0"/>
<path d="M103.555 30.0749C104.242 30.0168 104.931 29.9587 105.619 29.8966C105.308 31.4052 104.996 32.9125 104.685 34.4211C105.042 34.0433 105.373 33.7765 105.689 33.6312C106.004 33.4819 106.353 33.3907 106.741 33.3564C107.478 33.2903 107.991 33.4515 108.281 33.8386C108.572 34.2296 108.641 34.7818 108.494 35.5004C108.227 36.7884 107.962 38.0764 107.695 39.3644C107.008 39.4265 106.319 39.4886 105.632 39.5467C105.845 38.5243 106.054 37.5031 106.267 36.4767C106.328 36.1689 106.357 35.9205 106.353 35.7369C106.345 35.5506 106.299 35.4132 106.213 35.3168C106.066 35.1675 105.862 35.1054 105.603 35.1252C105.255 35.1543 104.964 35.2877 104.731 35.5202C104.501 35.7527 104.342 36.0724 104.261 36.4714C104.036 37.552 103.814 38.6352 103.589 39.7158C102.902 39.774 102.213 39.8281 101.525 39.8823C102.205 36.6207 102.881 33.3471 103.556 30.0736L103.555 30.0749Z" fill="#563FF0"/>
</g>
</svg>
