<svg width="252" height="66" viewBox="0 0 252 66" fill="none" xmlns="http://www.w3.org/2000/svg">
<g id="Group 266">
<g id="Group 265">
<path id="Fondo Proyecto 4" d="M0 33C0 14.7746 14.7746 0 33 0H219C237.225 0 252 14.7746 252 33V33C252 51.2254 237.249 66 219.024 66C192.293 66 154.515 66 126 66C97.4855 66 59.7066 66 32.9761 66C14.7508 66 0 51.2254 0 33V33Z" fill="url(#paint0_linear_12_167)"/>
<path id="Fondo Proyecto 3" d="M0 33C0 14.7746 14.7746 0 33 0H219C237.225 0 252 14.7746 252 33V33C252 51.2254 237.249 66 219.024 66C192.293 66 154.515 66 126 66C97.4855 66 59.7066 66 32.9761 66C14.7508 66 0 51.2254 0 33V33Z" fill="url(#paint1_linear_12_167)"/>
</g>
</g>
<defs>
<linearGradient id="paint0_linear_12_167" x1="-89.2102" y1="-12.6556" x2="149.177" y2="185.922" gradientUnits="userSpaceOnUse">
<stop offset="1" stop-color="white"/>
</linearGradient>
<linearGradient id="paint1_linear_12_167" x1="-89.2102" y1="-12.6556" x2="149.177" y2="185.922" gradientUnits="userSpaceOnUse">
<stop offset="0.342514" stop-color="#3AE3C3" stop-opacity="0.61"/>
<stop offset="0.893921" stop-color="#4E6CE4" stop-opacity="0.84358"/>
<stop offset="1" stop-color="#563FF0"/>
</linearGradient>
</defs>
</svg>
